<svg width="99" height="109" viewBox="0 0 99 109" fill="none" xmlns="http://www.w3.org/2000/svg">
<path fill-rule="evenodd" clip-rule="evenodd" d="M72.6995 79.2753C73.4495 78.5223 73.6305 77.5413 73.0145 76.6363C72.4995 75.8793 71.5705 75.6123 70.3635 76.1833C69.8535 76.4253 69.3495 76.7043 68.8525 77.0233C61.7335 81.6043 56.3055 82.9713 51.3085 82.3833C46.8625 81.8613 42.8085 79.7413 38.0185 77.0443C33.9515 74.7543 29.8095 74.3593 25.9525 75.2323C24.2925 75.5493 23.5445 77.5283 24.7335 78.7713C30.8355 85.1543 39.4355 89.1303 48.9645 89.1303C58.2395 89.1303 66.6325 85.3623 72.6995 79.2753ZM77.7495 70.6763C74.5035 71.1193 71.0765 72.2973 67.5555 74.5623C63.2175 77.3533 59.6775 78.1593 56.2195 77.7533C52.2105 77.2813 48.3185 75.2373 43.6955 72.6343C39.0555 70.0213 34.0355 69.6383 29.1705 70.7393C26.9555 71.2403 24.7625 71.9773 22.6945 73.0283C19.7075 74.5443 16.7815 67.8413 20.2445 67.1583C21.6375 66.8833 23.0885 66.6643 24.5765 66.5183C28.7525 66.1063 33.1505 66.2713 37.3455 67.3003C42.1055 68.4673 46.1295 69.3843 50.4895 69.6083C54.9575 69.8363 59.7075 69.3333 65.7935 67.6283C69.7775 66.5113 73.8895 66.2623 77.7475 66.4543C78.1895 66.4763 78.9165 66.7593 79.3185 67.3523C80.2535 68.7323 79.4655 70.4413 77.7495 70.6763ZM81.4255 61.7123C81.0255 62.0803 80.4855 62.2253 79.9885 62.2203C76.2475 62.1863 72.2705 62.5693 68.2925 63.6843C62.9215 65.1893 58.7035 65.6323 54.7165 65.4283C50.6205 65.2183 46.6995 64.3223 42.0455 63.1813C37.5345 62.0743 32.7695 61.9003 28.2235 62.3493C24.9895 62.6673 21.8315 63.3093 18.9175 64.1623C15.4845 65.1663 14.3865 57.2583 17.7945 57.4783C19.5905 57.5943 21.4685 57.6843 23.3895 57.7403C27.8095 57.8693 32.4515 57.8193 36.8615 57.4983C41.5475 57.1583 45.4985 56.8913 49.6605 56.8273C53.8465 56.7643 58.2865 56.9033 63.9605 57.3743C69.5115 57.8343 75.1455 57.8463 80.0945 57.6913C80.7405 57.6703 81.4515 58.0773 81.8475 58.6973C82.4335 59.6183 82.2225 60.9793 81.4255 61.7123ZM81.5955 53.4353C81.1665 53.8603 80.6095 54.0363 80.0835 54.0433C76.1505 54.0913 71.9395 54.0073 67.8035 53.6643C62.0205 53.1843 57.4925 53.0423 53.2225 53.1073C48.9295 53.1723 44.9355 53.4423 40.2075 53.7853C35.9105 54.0973 31.3905 54.1473 27.0885 54.0213C23.7515 53.9243 20.5365 53.7203 17.6535 53.4523C14.5575 53.1643 15.5125 47.2993 18.5415 48.1113C19.7785 48.4433 21.0365 48.7423 22.3185 48.9443C26.9525 49.6713 31.9185 49.3453 36.7825 47.4463C41.2115 45.7173 44.9415 44.3593 48.8285 44.0423C52.8695 43.7123 57.1955 44.4513 62.7825 46.9433C68.5105 49.5003 74.3885 49.5293 79.5665 48.6273C79.9735 48.5563 80.6805 48.6253 81.2135 48.9953C82.4205 49.8323 82.6205 52.4203 81.5955 53.4353ZM79.2385 41.1963C78.8555 40.3913 77.6875 39.9363 76.8395 40.1213C72.0505 41.1653 66.8405 40.6103 61.8025 36.5333C56.2135 32.0103 51.9375 30.6623 47.9895 31.2463C44.4935 31.7633 40.9875 34.0853 36.8085 37.0453C31.4665 40.8293 26.1885 41.4713 21.3445 40.0923C19.8405 39.6633 18.9085 40.4913 18.6015 41.4813C18.2875 42.4953 18.6295 43.6833 19.8395 44.1323C21.7575 44.8443 23.7735 45.3893 25.8365 45.7133C29.9255 46.3553 34.1215 46.1413 37.9645 44.6403C42.9485 42.6943 47.1645 41.1643 51.7325 40.7923C56.1475 40.4313 60.7875 41.2003 66.6595 43.8203C70.5895 45.5733 74.5545 46.0503 78.2535 45.8503C78.7065 45.8253 79.4375 45.4223 79.7925 44.8213C80.5335 43.5693 79.7895 42.3513 79.2385 41.1963ZM48.9645 22.0853C59.2875 22.0853 68.5195 26.7513 74.6685 34.0893C75.1595 34.6753 75.2565 35.8303 74.8085 36.5793C74.3855 37.2883 73.4505 37.6143 72.6885 37.4783C70.2845 37.0493 67.8025 35.9683 65.3165 33.9563C59.4475 29.2063 54.7565 27.8203 50.2495 28.4873C45.2905 29.2203 40.8505 32.1363 35.6165 35.8443C32.2515 38.2273 28.3875 38.5143 24.5085 37.4093C22.4925 36.7623 22.6985 34.7503 23.4085 33.9153C29.5565 26.6783 38.7245 22.0853 48.9645 22.0853Z" fill="#FF2E17"/>
<path fill-rule="evenodd" clip-rule="evenodd" d="M43.0293 108.361C43.9733 108.472 44.9303 108.56 45.8883 108.622L46.5943 99.7153L49.3703 101.317L52.1293 99.7243L52.8343 108.622C53.7923 108.56 54.7493 108.472 55.6933 108.361L54.7673 95.0063L49.3703 98.1223L43.9663 95.0013L43.0293 108.361Z" fill="#2C2E35"/>
<path fill-rule="evenodd" clip-rule="evenodd" d="M43.0825 14.2709L46.6585 0.815874C47.5615 0.770874 48.4625 0.747874 49.3665 0.747874C50.2675 0.747874 51.1755 0.770874 52.0745 0.815874L55.6515 14.2709C54.6645 14.1179 53.6725 14.0009 52.6775 13.9199L49.9375 3.35787C49.5575 3.35387 49.1765 3.35387 48.7955 3.35787L46.0565 13.9199C45.0605 14.0009 44.0685 14.1179 43.0825 14.2709Z" fill="#2C2E35"/>
<path fill-rule="evenodd" clip-rule="evenodd" d="M10.096 25.8051L5.557 23.1841L4.125 25.6631L8.461 28.1661C8.983 27.3631 9.528 26.5761 10.096 25.8051Z" fill="#2C2E35"/>
<path fill-rule="evenodd" clip-rule="evenodd" d="M2.40125 33.8832L0.135254 32.5742C0.878254 30.9232 1.70425 29.3112 2.60925 27.7432C3.51525 26.1752 4.49825 24.6532 5.55625 23.1842L7.82325 24.4922C6.75725 25.9562 5.76925 27.4762 4.86325 29.0442C3.95825 30.6122 3.13625 32.2282 2.40125 33.8832Z" fill="#2C2E35"/>
<path fill-rule="evenodd" clip-rule="evenodd" d="M11.5123 39.1432C11.8783 38.2562 12.2643 37.3772 12.6913 36.5182L1.56625 30.0952L0.135254 32.5742L11.5123 39.1432Z" fill="#2C2E35"/>
<path fill-rule="evenodd" clip-rule="evenodd" d="M84.0465 81.0135C85.1395 79.5705 86.1415 78.0605 87.0465 76.4935C87.9525 74.9255 88.7585 73.3025 89.4615 71.6335L87.2325 70.3335C86.5415 72.0115 85.7395 73.6425 84.8315 75.2145C83.9255 76.7845 82.9175 78.2945 81.8115 79.7305L84.0465 81.0135ZM98.5945 76.9065C97.8535 78.5515 97.0255 80.1715 96.1235 81.7335C95.2185 83.3015 94.2345 84.8225 93.1765 86.2915L90.9095 84.9835C91.9755 83.5195 92.9635 82.0005 93.8695 80.4315C94.7745 78.8635 95.5945 77.2545 96.3295 75.5985L98.5945 76.9065Z" fill="#2C2E35"/>
<path fill-rule="evenodd" clip-rule="evenodd" d="M95.025 82.7517L96.457 80.2727L86.308 74.4127L84.876 76.8927L95.025 82.7517Z" fill="#2C2E35"/>
<path fill-rule="evenodd" clip-rule="evenodd" d="M0.135254 76.9018L11.4953 70.3208C12.1873 72.0038 12.9913 73.6388 13.9013 75.2138C14.0953 75.5498 14.2923 75.8848 14.4953 76.2158C15.9843 78.6418 15.2623 81.3878 12.9903 82.6998C10.7363 84.0008 8.10825 83.2008 6.69625 80.8318C6.47625 80.4718 6.26125 80.1108 6.05125 79.7458C5.62425 79.0068 5.21625 78.2578 4.82825 77.4968L1.38225 79.4868C0.944254 78.6358 0.528254 77.7738 0.135254 76.9018ZM12.2813 77.4938C12.0783 77.1628 11.8803 76.8298 11.6863 76.4928C11.2593 75.7538 10.8543 75.0018 10.4713 74.2388L7.07225 76.2018C7.45825 76.9628 7.86425 77.7138 8.29125 78.4528C8.48525 78.7888 8.68325 79.1228 8.88625 79.4538C9.48425 80.4898 10.5143 80.8238 11.5803 80.2078C12.6093 79.6138 12.9353 78.5368 12.2813 77.4938Z" fill="#2C2E35"/>
<path fill-rule="evenodd" clip-rule="evenodd" d="M27.8578 17.3899C25.9728 18.4789 23.7148 17.7439 22.5678 15.7579C21.4208 13.7709 21.9138 11.4479 23.7988 10.3599C25.6838 9.27187 27.9418 10.0059 29.0888 11.9929C30.2458 13.9959 29.7428 16.3019 27.8578 17.3899ZM29.2498 19.8009C32.5788 17.8799 33.6358 13.8279 31.7038 10.4829C29.7628 7.11987 25.7348 6.02687 22.4068 7.94887C19.0618 9.87987 18.0118 13.9049 19.9528 17.2669C21.8848 20.6119 25.9048 21.7329 29.2498 19.8009Z" fill="#2C2E35"/>
<path fill-rule="evenodd" clip-rule="evenodd" d="M70.9565 17.4369C69.0715 16.3489 68.5785 14.0259 69.7255 12.0399C70.8725 10.0529 73.1305 9.31889 75.0155 10.4069C76.9005 11.4949 77.3935 13.8179 76.2465 15.8049C75.0895 17.8079 72.8415 18.5249 70.9565 17.4369ZM69.5645 19.8479C72.8925 21.7699 76.9305 20.6589 78.8615 17.3139C80.8025 13.9519 79.7355 9.91689 76.4075 7.99589C73.0625 6.06389 69.0515 7.16689 67.1105 10.5299C65.1795 13.8749 66.2195 17.9169 69.5645 19.8479Z" fill="#2C2E35"/>
<path fill-rule="evenodd" clip-rule="evenodd" d="M27.7148 92.2398C25.8298 91.1518 23.5718 91.8858 22.4248 93.8728C21.2778 95.8598 21.7708 98.1818 23.6558 99.2698C25.5408 100.359 27.7988 99.6238 28.9458 97.6368C30.1028 95.6338 29.5998 93.3278 27.7148 92.2398ZM29.1068 89.8288C32.4348 91.7498 33.4928 95.8018 31.5608 99.1468C29.6198 102.51 25.5918 103.603 22.2638 101.682C18.9188 99.7498 17.8688 95.7248 19.8098 92.3628C21.7408 89.0178 25.7618 87.8968 29.1068 89.8288Z" fill="#2C2E35"/>
<path fill-rule="evenodd" clip-rule="evenodd" d="M84.2807 34.603C85.3497 36.454 86.9987 37.585 88.8997 37.936L89.5467 35.253C88.4197 35.066 87.3877 34.417 86.7607 33.33C85.6037 31.326 86.2847 29.054 88.3217 27.877C90.3257 26.72 92.6247 27.25 93.7517 29.203C94.3597 30.256 94.4237 31.464 94.0317 32.551L96.7127 33.312C97.3327 31.483 97.1337 29.492 96.1237 27.743C94.1927 24.397 90.1577 23.331 86.7787 25.282C83.3817 27.242 82.3197 31.207 84.2807 34.603Z" fill="#2C2E35"/>
<path fill-rule="evenodd" clip-rule="evenodd" d="M71.5357 103.968L64.9707 92.5979C65.8637 92.2309 66.7267 91.8419 67.5917 91.4119L70.8417 97.0299C71.5977 96.6459 72.3517 96.2359 73.0867 95.8119C73.8207 95.3879 74.5437 94.9439 75.2537 94.4819L72.0237 88.8529C72.8247 88.3219 73.6017 87.7649 74.3627 87.1779L80.9277 98.5499C80.1517 99.1089 79.3577 99.6449 78.5527 100.162L76.5607 96.7179C75.8457 97.1809 75.1177 97.6259 74.3797 98.0519C73.6437 98.4769 72.8977 98.8829 72.1407 99.2699L74.1207 102.72C73.2697 103.159 72.4077 103.575 71.5357 103.968Z" fill="#2C2E35"/>
<path fill-rule="evenodd" clip-rule="evenodd" d="M2.07673 56.4697C3.03073 56.4697 3.80873 55.6917 3.80873 54.7377C3.80873 53.7837 3.03073 53.0057 2.07673 53.0057C1.12273 53.0057 0.344727 53.7837 0.344727 54.7377C0.344727 55.6917 1.12273 56.4697 2.07673 56.4697Z" fill="#2C2E35"/>
<path fill-rule="evenodd" clip-rule="evenodd" d="M97.126 56.4697C98.08 56.4697 98.858 55.6917 98.858 54.7377C98.858 53.7837 98.08 53.0057 97.126 53.0057C96.172 53.0057 95.394 53.7837 95.394 54.7377C95.394 55.6917 96.172 56.4697 97.126 56.4697Z" fill="#2C2E35"/>
</svg>
