<svg width="67" height="104" viewBox="0 0 67 104" fill="none" xmlns="http://www.w3.org/2000/svg">
<path fill-rule="evenodd" clip-rule="evenodd" d="M57.3728 57.589C58.1278 56.831 58.3098 55.843 57.6908 54.932C57.1718 54.169 56.2358 53.9 55.0208 54.476C54.5078 54.718 53.9998 55 53.4988 55.322C46.3308 59.934 40.8638 61.311 35.8328 60.719C31.3558 60.193 27.2728 58.058 22.4498 55.343C18.3548 53.037 14.1838 52.639 10.2998 53.518C8.62785 53.837 7.87485 55.83 9.07185 57.081C15.2168 63.509 23.8768 67.513 33.4728 67.513C42.8118 67.513 51.2638 63.718 57.3728 57.589ZM62.4578 48.929C59.1888 49.376 55.7388 50.562 52.1928 52.843C47.8248 55.654 44.2608 56.465 40.7778 56.056C36.7408 55.581 32.8218 53.523 28.1658 50.902C23.4938 48.271 18.4388 47.884 13.5398 48.993C11.3098 49.498 9.10185 50.241 7.01885 51.298C4.01085 52.825 1.06485 46.075 4.55185 45.388C5.95485 45.111 7.41585 44.891 8.91385 44.743C13.1188 44.328 17.5478 44.494 21.7728 45.53C26.5658 46.706 30.6178 47.629 35.0078 47.854C39.5068 48.084 44.2908 47.578 50.4188 45.86C54.4298 44.737 58.5718 44.485 62.4568 44.679C62.9018 44.701 63.6329 44.986 64.0378 45.583C64.9799 46.972 64.1868 48.694 62.4578 48.929ZM66.1598 39.903C65.7568 40.274 65.2128 40.42 64.7128 40.415C60.9458 40.381 56.9418 40.767 52.9348 41.889C47.5268 43.405 43.2788 43.851 39.2638 43.645C35.1398 43.434 31.1908 42.532 26.5048 41.383C21.9618 40.269 17.1648 40.093 12.5868 40.545C9.33085 40.866 6.15085 41.511 3.21585 42.37C-0.241154 43.382 -1.34715 35.418 2.08485 35.64C3.89385 35.756 5.78385 35.847 7.71885 35.904C12.1698 36.034 16.8448 35.983 21.2848 35.661C26.0028 35.318 29.9818 35.049 34.1738 34.985C38.3878 34.921 42.8588 35.061 48.5728 35.535C54.1628 35.999 59.8368 36.011 64.8188 35.854C65.4698 35.834 66.1868 36.243 66.5848 36.868C67.1748 37.795 66.9618 39.166 66.1598 39.903ZM66.3318 31.569C65.8998 31.997 65.3378 32.174 64.8088 32.181C60.8478 32.229 56.6078 32.145 52.4428 31.799C46.6199 31.316 42.0598 31.173 37.7598 31.238C33.4368 31.304 29.4148 31.576 24.6548 31.921C20.3268 32.236 15.7758 32.286 11.4438 32.159C8.08285 32.061 4.84585 31.856 1.94285 31.585C-1.17415 31.296 -0.212152 25.39 2.83685 26.208C4.08285 26.542 5.34885 26.843 6.64085 27.046C11.3068 27.778 16.3068 27.45 21.2058 25.538C25.6648 23.797 29.4208 22.429 33.3358 22.11C37.4048 21.778 41.7608 22.522 47.3858 25.032C53.1548 27.606 59.0738 27.636 64.2878 26.727C64.6979 26.656 65.4098 26.725 65.9468 27.098C67.1628 27.941 67.3628 30.546 66.3318 31.569ZM63.9578 19.244C63.5718 18.434 62.3958 17.976 61.5418 18.162C56.7198 19.213 51.4728 18.654 46.3998 14.549C40.7729 9.994 36.4669 8.636 32.4908 9.225C28.9698 9.745 25.4388 12.084 21.2308 15.064C15.8528 18.874 10.5378 19.522 5.65985 18.133C4.14485 17.701 3.20685 18.534 2.89785 19.531C2.58185 20.552 2.92485 21.749 4.14385 22.201C6.07585 22.918 8.10585 23.467 10.1828 23.793C14.3008 24.439 18.5258 24.224 22.3948 22.712C27.4148 20.752 31.6598 19.212 36.2588 18.837C40.7048 18.474 45.3788 19.249 51.2908 21.886C55.2478 23.652 59.2408 24.132 62.9658 23.931C63.4218 23.906 64.1578 23.5 64.5158 22.895C65.2618 21.634 64.5128 20.407 63.9578 19.244ZM33.4728 0C43.8668 0 53.1638 4.699 59.3558 12.087C59.8508 12.677 59.9478 13.841 59.4968 14.595C59.0709 15.309 58.1288 15.637 57.3628 15.5C54.9418 15.068 52.4418 13.98 49.9378 11.954C44.0288 7.171 39.3048 5.775 34.7658 6.447C29.7728 7.185 25.3018 10.121 20.0308 13.855C16.6428 16.255 12.7508 16.544 8.84485 15.431C6.81585 14.78 7.02285 12.753 7.73785 11.912C13.9288 4.625 23.1608 0 33.4728 0Z" fill="#FF2E17"/>
<path fill-rule="evenodd" clip-rule="evenodd" d="M22.433 101.359C20.81 101.359 19.626 100.043 19.626 98.3334C19.626 96.6234 20.81 95.3074 22.433 95.3074C24.055 95.3074 25.239 96.6234 25.239 98.3334C25.239 100.058 24.055 101.359 22.433 101.359ZM22.433 103.435C25.298 103.435 27.49 101.213 27.49 98.3334C27.49 95.4384 25.298 93.2314 22.433 93.2314C19.553 93.2314 17.375 95.4384 17.375 98.3334C17.375 101.213 19.553 103.435 22.433 103.435Z" fill="#2C2E35"/>
<path fill-rule="evenodd" clip-rule="evenodd" d="M37.3793 103.23H39.5133L38.8233 93.4362L36.6893 94.6692L37.3793 103.23ZM30.0493 103.23H32.1833L32.8733 94.6682L30.7393 93.4362L30.0493 103.23Z" fill="#2C2E35"/>
<path fill-rule="evenodd" clip-rule="evenodd" d="M30.7393 93.4365V95.8185L34.7813 98.1515L38.8233 95.8185V93.4365L34.7813 95.7695L30.7393 93.4365Z" fill="#2C2E35"/>
<path fill-rule="evenodd" clip-rule="evenodd" d="M43.0874 103.23H45.2214V99.2692H49.0364V103.23H51.1714V93.4362H49.0364V97.2662H45.2214V93.4362H43.0874V103.23Z" fill="#2C2E35"/>
<path fill-rule="evenodd" clip-rule="evenodd" d="M58.4106 103.23H60.5446V93.4362H58.4106V103.23Z" fill="#2C2E35"/>
<path fill-rule="evenodd" clip-rule="evenodd" d="M55.4355 95.4392H63.5195V93.4372H55.4355V95.4392ZM55.4355 103.23H63.5195V101.228H55.4355V103.23Z" fill="#2C2E35"/>
<path fill-rule="evenodd" clip-rule="evenodd" d="M8.17697 98.0556V95.4386H10.953C11.844 95.4386 12.444 95.9656 12.444 96.7546C12.444 97.5736 11.844 98.0556 10.953 98.0556H8.17697ZM6.04297 103.231H8.17697V100.059H11.026C13.072 100.059 14.578 98.6546 14.578 96.7546C14.578 94.8396 13.058 93.4366 10.953 93.4366H6.04297V103.231Z" fill="#2C2E35"/>
<path fill-rule="evenodd" clip-rule="evenodd" d="M22.5092 85.1786C20.8872 85.1786 19.7022 83.8636 19.7022 82.1526C19.7022 80.4426 20.8872 79.1266 22.5092 79.1266C24.1322 79.1266 25.3152 80.4426 25.3152 82.1526C25.3152 83.8776 24.1322 85.1786 22.5092 85.1786ZM22.5092 87.2546C25.3742 87.2546 27.5672 85.0326 27.5672 82.1526C27.5672 79.2586 25.3742 77.0516 22.5092 77.0516C19.6292 77.0516 17.4512 79.2586 17.4512 82.1526C17.4512 85.0326 19.6292 87.2546 22.5092 87.2546Z" fill="#2C2E35"/>
<path fill-rule="evenodd" clip-rule="evenodd" d="M47.2055 85.1786C45.5825 85.1786 44.3985 83.8636 44.3985 82.1526C44.3985 80.4426 45.5825 79.1266 47.2055 79.1266C48.8275 79.1266 50.0125 80.4426 50.0125 82.1526C50.0125 83.8776 48.8275 85.1786 47.2055 85.1786ZM47.2055 87.2546C50.0705 87.2546 52.2635 85.0326 52.2635 82.1526C52.2635 79.2586 50.0705 77.0516 47.2055 77.0516C44.3265 77.0516 42.1475 79.2586 42.1475 82.1526C42.1475 85.0326 44.3265 87.2546 47.2055 87.2546Z" fill="#2C2E35"/>
<path fill-rule="evenodd" clip-rule="evenodd" d="M59.568 87.2567C61.161 87.2567 62.506 86.6137 63.442 85.5177L61.951 84.0997C61.41 84.7567 60.606 85.1807 59.67 85.1807C57.946 85.1807 56.732 83.8947 56.732 82.1407C56.732 80.4157 57.931 79.1297 59.612 79.1297C60.518 79.1297 61.322 79.5387 61.878 80.1967L63.369 78.7497C62.419 77.6677 61.059 77.0537 59.554 77.0537C56.674 77.0537 54.481 79.2607 54.481 82.1697C54.481 85.0937 56.645 87.2567 59.568 87.2567Z" fill="#2C2E35"/>
<path fill-rule="evenodd" clip-rule="evenodd" d="M30.2261 87.0492H32.3601L34.4321 79.2582H35.2831L37.3551 87.0492H39.4891L36.8991 77.2552H32.8161L30.2261 87.0492Z" fill="#2C2E35"/>
<path fill-rule="evenodd" clip-rule="evenodd" d="M6.11963 87.0502H8.25363V77.2562H6.11963V87.0502Z" fill="#2C2E35"/>
<path fill-rule="evenodd" clip-rule="evenodd" d="M6.11963 79.2592H14.2026V77.2562H6.11963V79.2592Z" fill="#2C2E35"/>
<path fill-rule="evenodd" clip-rule="evenodd" d="M12.0698 81.4002H14.2038V77.2552H12.0698V81.4002Z" fill="#2C2E35"/>
</svg>
