<?xml version="1.0" encoding="utf-8"?>
<!-- Generator: Adobe Illustrator 27.1.1, SVG Export Plug-In . SVG Version: 6.00 Build 0)  -->
<svg version="1.1" id="Слой_1" xmlns="http://www.w3.org/2000/svg" xmlns:xlink="http://www.w3.org/1999/xlink" x="0px" y="0px"
	 viewBox="0 0 1024 1024" style="enable-background:new 0 0 1024 1024;" xml:space="preserve">
<style type="text/css">
	.st0{fill:#25D366;}
</style>
<path class="st0" d="M746.6,613.6c-12.8-6.4-75.4-37-87-41.2c-11.6-4.3-20.2-6.4-28.7,6.4c-8.4,12.6-32.9,41.1-40.3,49.6
	c-7.5,8.3-14.9,9-27.6,3.2c-12.8-6.4-53.9-19.8-102.5-63.4c-37.9-33.9-63.3-75.5-70.8-88.3c-7.4-12.8-0.8-19.8,5.5-26.2
	c5.8-5.8,12.8-14.7,19.2-22.3c6.2-7.7,8.3-12.8,12.7-21.2c4.3-9,2.1-16-1.1-22.4c-3.2-6.4-28.7-69.1-39.3-94.1
	C376.4,268.8,365.9,272,358,272c-7.3-0.6-15.8-0.6-24.4-0.6s-22.3,3.2-34,15.3c-11.6,12.8-44.6,43.5-44.6,105.6s45.7,122.2,52,131.2
	c6.4,8.3,89.8,136.3,217.6,191.4c30.5,12.8,54.2,20.5,72.7,26.8c30.5,9.7,58.2,8.3,80.2,5.2c24.5-3.9,75.4-30.8,86-60.8
	c10.9-30.1,10.9-55,7.7-60.8C768.1,619.4,759.4,619.4,746.6,613.6L746.6,613.6z M514.6,928h-0.7c-75.5,0-150.4-20.5-215.7-58.9
	l-15.4-9.1l-160,41.6l42.9-155.5l-10.2-16c-42.2-67.2-64.7-144.7-64.7-224.4C90.9,273.3,281,83.9,515.1,83.9
	c113.2,0,219.5,44.2,299.6,124.2c80,79.3,124.1,185.6,124.1,298.2C938.6,738.6,748.5,928,514.9,928L514.6,928z M875.5,147.2
	C778.2,53.1,650.2,0,513.9,0C233.1,0,4.4,227.6,4.3,507.4c0,89.4,23.4,176.6,68.1,253.7L0,1024l270.3-70.5
	c74.5,40.2,158.3,61.6,243.6,61.7h0.3c281,0,509.7-227.7,509.8-507.6c0-135.5-52.9-263-149.1-358.9L875.5,147.2z"/>
</svg>
