<svg xmlns="http://www.w3.org/2000/svg" viewBox="0 0 67 67"><path fill="#ed1c24" fill-rule="evenodd" d="M33.482 0a33.788 33.788 0 0125.885 12c.49.586.59 1.737.14 2.492-.43.705-1.37 1.032-2.13.893-2.42-.427-4.921-1.509-7.422-3.523-5.911-4.745-10.632-6.135-15.173-5.47-4.99.735-9.462 3.643-14.743 7.355-3.39 2.383-7.281 2.67-11.192 1.569-2.03-.645-1.82-2.66-1.11-3.494A33.81 33.81 0 0133.482 0zm30.496 19.098c-.39-.804-1.56-1.261-2.42-1.072-4.822 1.042-10.073.486-15.144-3.584-5.63-4.516-9.932-5.866-13.912-5.28-3.52.516-7.052 2.838-11.263 5.796-5.38 3.782-10.692 4.427-15.573 3.048-1.52-.427-2.45.397-2.76 1.39-.32 1.012.03 2.203 1.25 2.65 1.93.714 3.96 1.26 6.041 1.578 4.121.645 8.342.427 12.213-1.072 5.02-1.946 9.262-3.474 13.862-3.852 4.451-.357 9.122.407 15.033 3.028 3.961 1.757 7.952 2.233 11.683 2.025.46-.02 1.19-.427 1.55-1.033.75-1.25 0-2.471-.56-3.623zm2.37 12.228c-.43.427-.99.606-1.52.606-3.96.05-8.202-.04-12.372-.377-5.821-.477-10.382-.626-14.683-.556-4.321.07-8.342.337-13.113.675-4.33.307-8.882.357-13.212.238-3.361-.1-6.602-.298-9.502-.566-3.12-.288-2.16-6.154.89-5.34 1.25.328 2.51.635 3.8.834 4.672.724 9.673.397 14.564-1.5 4.46-1.726 8.221-3.086 12.132-3.404 4.07-.327 8.432.407 14.053 2.899 5.77 2.55 11.692 2.58 16.903 1.687.41-.07 1.12 0 1.66.367 1.22.834 1.42 3.425.38 4.437zm-.17 8.268c-.4.368-.95.517-1.45.507-3.77-.03-7.771.347-11.782 1.459-5.411 1.509-9.662 1.945-13.673 1.747-4.12-.209-8.072-1.102-12.762-2.243-4.541-1.102-9.342-1.28-13.923-.834a51.67 51.67 0 00-9.372 1.816c-3.46 1.003-4.561-6.898-1.13-6.68 1.81.12 3.7.209 5.63.258 4.452.13 9.133.08 13.573-.238 4.721-.338 8.702-.606 12.893-.675 4.21-.06 8.692.08 14.403.546 5.591.457 11.262.476 16.253.318.65-.02 1.37.387 1.77 1.002.59.923.38 2.283-.42 3.018zm-3.7 8.964c-3.27.446-6.722 1.618-10.272 3.88-4.371 2.79-7.932 3.594-11.423 3.187-4.04-.477-7.961-2.511-12.612-5.112-4.671-2.61-9.732-2.998-14.633-1.896-2.23.496-4.44 1.24-6.521 2.283-3.01 1.519-5.952-5.181-2.47-5.866a42.63 42.63 0 014.36-.635c4.21-.407 8.632-.249 12.863.784 4.79 1.171 8.851 2.084 13.242 2.303 4.501.228 9.282-.278 15.413-1.976 4.011-1.111 8.152-1.36 12.043-1.17.44.019 1.18.307 1.58.892.94 1.38.15 3.087-1.58 3.326zm-5.091 8.595c.76-.754.94-1.737.32-2.64-.52-.754-1.45-1.022-2.67-.456-.51.238-1.021.516-1.521.843-7.171 4.576-12.643 5.946-17.674 5.36-4.48-.526-8.561-2.64-13.382-5.34-4.101-2.293-8.272-2.68-12.153-1.806-1.67.317-2.42 2.293-1.23 3.533C15.228 63.03 23.88 67 33.482 67s17.794-3.762 23.905-9.847z"/></svg>