<svg width="67" height="104" fill="none" xmlns="http://www.w3.org/2000/svg"><path fill-rule="evenodd" clip-rule="evenodd" d="M57.373 57.589c.755-.758.937-1.746.318-2.657-.52-.763-1.455-1.032-2.67-.456-.513.242-1.021.524-1.522.846-7.168 4.612-12.635 5.989-17.666 5.397-4.477-.526-8.56-2.661-13.383-5.376-4.095-2.306-8.266-2.704-12.15-1.825-1.672.319-2.425 2.312-1.228 3.563 6.145 6.428 14.805 10.432 24.4 10.432 9.34 0 17.792-3.795 23.9-9.924zm5.085-8.66c-3.27.447-6.72 1.633-10.265 3.914-4.368 2.811-7.932 3.622-11.415 3.213-4.037-.475-7.956-2.533-12.612-5.154-4.672-2.631-9.727-3.018-14.626-1.909-2.23.505-4.438 1.248-6.521 2.305-3.008 1.527-5.954-5.223-2.467-5.91a45.819 45.819 0 014.362-.645c4.205-.415 8.634-.249 12.859.787 4.793 1.176 8.845 2.099 13.235 2.324 4.499.23 9.283-.276 15.41-1.994 4.012-1.123 8.154-1.375 12.039-1.181.445.022 1.176.307 1.58.904.943 1.389.15 3.111-1.58 3.346zm3.702-9.026c-.403.371-.947.517-1.447.512-3.767-.034-7.771.352-11.778 1.474-5.408 1.516-9.656 1.962-13.671 1.756-4.124-.211-8.073-1.113-12.76-2.262-4.542-1.114-9.34-1.29-13.917-.838a51.64 51.64 0 00-9.371 1.825c-3.457 1.012-4.563-6.952-1.131-6.73 1.809.116 3.699.207 5.634.264 4.45.13 9.126.079 13.566-.243 4.718-.343 8.697-.612 12.889-.676 4.214-.064 8.685.076 14.399.55 5.59.464 11.264.476 16.246.319.65-.02 1.368.389 1.766 1.014.59.927.377 2.298-.425 3.035zm.172-8.334c-.432.428-.994.605-1.523.612-3.961.048-8.201-.036-12.366-.382-5.823-.483-10.383-.626-14.683-.561-4.323.066-8.345.338-13.105.683-4.328.315-8.88.365-13.211.238a150.62 150.62 0 01-9.501-.574c-3.117-.289-2.155-6.195.894-5.377 1.246.334 2.512.635 3.804.838 4.666.732 9.666.404 14.565-1.508 4.459-1.741 8.215-3.109 12.13-3.428 4.069-.332 8.425.412 14.05 2.922 5.769 2.574 11.688 2.604 16.902 1.695.41-.071 1.122-.002 1.659.371 1.216.843 1.416 3.448.385 4.471zm-2.374-12.325c-.386-.81-1.562-1.268-2.416-1.082-4.822 1.051-10.07.492-15.142-3.613-5.627-4.555-9.933-5.913-13.91-5.324-3.52.52-7.051 2.859-11.26 5.839-5.377 3.81-10.692 4.458-15.57 3.069-1.515-.432-2.453.401-2.762 1.398-.316 1.021.027 2.218 1.246 2.67a31.403 31.403 0 006.039 1.592c4.118.646 8.343.431 12.212-1.081 5.02-1.96 9.265-3.5 13.864-3.875 4.446-.363 9.12.412 15.032 3.049 3.957 1.766 7.95 2.246 11.675 2.045.456-.025 1.192-.431 1.55-1.036.746-1.261-.003-2.488-.558-3.651zM33.473 0c10.394 0 19.69 4.699 25.883 12.087.495.59.592 1.754.14 2.508-.425.714-1.367 1.042-2.133.905-2.421-.432-4.921-1.52-7.425-3.546-5.91-4.783-10.633-6.179-15.172-5.507-4.993.738-9.464 3.674-14.735 7.408-3.388 2.4-7.28 2.689-11.186 1.576-2.03-.651-1.822-2.678-1.107-3.519C13.928 4.625 23.16 0 33.473 0z" fill="#FF2E17"/><path fill-rule="evenodd" clip-rule="evenodd" d="M22.433 101.359c-1.623 0-2.807-1.316-2.807-3.026 0-1.71 1.184-3.026 2.807-3.026 1.622 0 2.806 1.316 2.806 3.026 0 1.725-1.184 3.026-2.806 3.026zm0 2.076c2.865 0 5.057-2.222 5.057-5.102 0-2.895-2.192-5.102-5.057-5.102-2.88 0-5.058 2.207-5.058 5.102 0 2.88 2.178 5.102 5.058 5.102zm14.947-.205h2.133l-.69-9.794-2.134 1.233.69 8.561zm-7.33 0h2.133l.69-8.562-2.134-1.232-.69 9.794z" fill="#2C2E35"/><path fill-rule="evenodd" clip-rule="evenodd" d="M30.74 93.436v2.382l4.041 2.334 4.042-2.334v-2.382l-4.042 2.333-4.042-2.333zm12.347 9.794h2.134v-3.96h3.815v3.96h2.135v-9.794h-2.135v3.83h-3.815v-3.83h-2.134v9.794zm15.323 0h2.135v-9.794H58.41v9.794z" fill="#2C2E35"/><path fill-rule="evenodd" clip-rule="evenodd" d="M55.435 95.44h8.084v-2.003h-8.084v2.002zm0 7.79h8.084v-2.002h-8.084v2.002zM8.177 98.056v-2.617h2.776c.891 0 1.491.527 1.491 1.316 0 .819-.6 1.3-1.491 1.3H8.177zm-2.134 5.175h2.134v-3.172h2.849c2.046 0 3.552-1.404 3.552-3.304 0-1.915-1.52-3.318-3.625-3.318h-4.91v9.794zM22.51 85.179c-1.623 0-2.808-1.315-2.808-3.026 0-1.71 1.185-3.026 2.807-3.026 1.623 0 2.806 1.316 2.806 3.026 0 1.725-1.183 3.026-2.806 3.026zm0 2.076c2.864 0 5.057-2.222 5.057-5.102 0-2.894-2.193-5.101-5.058-5.101-2.88 0-5.058 2.207-5.058 5.1 0 2.88 2.178 5.103 5.058 5.103zm24.696-2.076c-1.623 0-2.808-1.315-2.808-3.026 0-1.71 1.184-3.026 2.807-3.026s2.808 1.316 2.808 3.026c0 1.725-1.185 3.026-2.807 3.026zm0 2.076c2.864 0 5.057-2.222 5.057-5.102 0-2.894-2.192-5.101-5.057-5.101-2.88 0-5.059 2.207-5.059 5.1 0 2.88 2.18 5.103 5.059 5.103zm12.362.002c1.593 0 2.938-.643 3.874-1.74L61.951 84.1a2.926 2.926 0 01-2.281 1.08c-1.724 0-2.938-1.285-2.938-3.04 0-1.724 1.199-3.01 2.88-3.01.906 0 1.71.409 2.266 1.067l1.491-1.447c-.95-1.082-2.31-1.696-3.815-1.696-2.88 0-5.073 2.207-5.073 5.116 0 2.924 2.164 5.087 5.087 5.087zm-29.342-.207h2.134l2.072-7.792h.851l2.072 7.791h2.134l-2.59-9.794h-4.083l-2.59 9.794zm-24.106 0h2.134v-9.794H6.12v9.794z" fill="#2C2E35"/><path fill-rule="evenodd" clip-rule="evenodd" d="M6.12 79.26h8.083v-2.004H6.12v2.003z" fill="#2C2E35"/><path fill-rule="evenodd" clip-rule="evenodd" d="M12.07 81.4h2.134v-4.145H12.07V81.4z" fill="#2C2E35"/></svg>