<svg xmlns="http://www.w3.org/2000/svg" viewBox="0 0 1024 1024"><path d="M746.6 613.6c-12.8-6.4-75.4-37-87-41.2-11.6-4.3-20.2-6.4-28.7 6.4-8.4 12.6-32.9 41.1-40.3 49.6-7.5 8.3-14.9 9-27.6 3.2-12.8-6.4-53.9-19.8-102.5-63.4-37.9-33.9-63.3-75.5-70.8-88.3-7.4-12.8-.8-19.8 5.5-26.2 5.8-5.8 12.8-14.7 19.2-22.3 6.2-7.7 8.3-12.8 12.7-21.2 4.3-9 2.1-16-1.1-22.4-3.2-6.4-28.7-69.1-39.3-94.1-10.3-24.9-20.8-21.7-28.7-21.7-7.3-.6-15.8-.6-24.4-.6s-22.3 3.2-34 15.3C288 299.5 255 330.2 255 392.3s45.7 122.2 52 131.2c6.4 8.3 89.8 136.3 217.6 191.4 30.5 12.8 54.2 20.5 72.7 26.8 30.5 9.7 58.2 8.3 80.2 5.2 24.5-3.9 75.4-30.8 86-60.8 10.9-30.1 10.9-55 7.7-60.8-3.1-5.9-11.8-5.9-24.6-11.7zM514.6 928h-.7c-75.5 0-150.4-20.5-215.7-58.9l-15.4-9.1-160 41.6 42.9-155.5-10.2-16c-42.2-67.2-64.7-144.7-64.7-224.4C90.9 273.3 281 83.9 515.1 83.9c113.2 0 219.5 44.2 299.6 124.2 80 79.3 124.1 185.6 124.1 298.2C938.6 738.6 748.5 928 514.9 928h-.3zm360.9-780.8C778.2 53.1 650.2 0 513.9 0 233.1 0 4.4 227.6 4.3 507.4c0 89.4 23.4 176.6 68.1 253.7L0 1024l270.3-70.5c74.5 40.2 158.3 61.6 243.6 61.7h.3c281 0 509.7-227.7 509.8-507.6 0-135.5-52.9-263-149.1-358.9l.6-1.5z" fill="#25d366"/></svg>