<svg xmlns="http://www.w3.org/2000/svg" viewBox="0 0 67 67"><path fill="#ed1c24" fill-rule="evenodd" d="M33.482 0c10.392 0 19.6939 4.6652 25.885 12.0004.4902.5857.5902 1.737.1401 2.4915-.43.7047-1.3703 1.0322-2.1304.8933-2.4205-.4268-4.921-1.5088-7.4215-3.5237-5.9112-4.7446-10.632-6.1342-15.173-5.4692-4.991.7345-9.4619 3.6428-14.743 7.3551-3.3906 2.3822-7.2814 2.67-11.1921 1.5683-2.0304-.6452-1.8204-2.6601-1.1103-3.494C13.9381 4.5858 23.17 0 33.482 0Zm30.496 19.0975c-.39-.804-1.5603-1.2606-2.4205-1.072-4.821 1.0422-10.072.4864-15.143-3.5833-5.6311-4.5163-9.932-5.8662-13.9127-5.2806-3.5207.5162-7.0514 2.8388-11.2623 5.7968-5.381 3.7817-10.6921 4.427-15.573 3.0472-1.5204-.4268-2.4506.397-2.7606 1.3897-.32 1.0124.03 2.2035 1.2502 2.6502 1.9304.7146 3.9608 1.2606 6.0412 1.5782 4.1208.6452 8.3417.4268 12.2125-1.072 5.021-1.9455 9.2618-3.474 13.8627-3.8513 4.4509-.3573 9.1218.407 15.033 3.0275 3.9608 1.7568 7.9516 2.2333 11.6823 2.0248.4601-.0198 1.1902-.4268 1.5503-1.0323.7502-1.2506 0-2.4715-.5601-3.623zm2.3705 12.2287c-.4301.4268-.9902.6055-1.5203.6055-3.9608.0496-8.2017-.0397-12.3725-.3772-5.8211-.4764-10.382-.6253-14.6829-.5558-4.3209.0694-8.3417.3374-13.1126.675-4.3309.3076-8.8818.3573-13.2126.2382-3.3607-.0993-6.6013-.2978-9.502-.5658-3.1205-.2879-2.1603-6.1541.8903-5.3402 1.2502.3276 2.5105.6353 3.8007.8338 4.671.7246 9.672.397 14.563-1.4988 4.4608-1.7271 8.2215-3.087 12.1323-3.4046 4.0708-.3276 8.4317.407 14.0528 2.8984 5.7712 2.551 11.6923 2.5807 16.9034 1.6874.41-.0695 1.1202 0 1.6603.3672 1.2202.8338 1.4203 3.4245.38 4.437zm-.17 8.2683c-.4001.3673-.9502.5162-1.4503.5062-3.7708-.0297-7.7716.3474-11.7824 1.4592-5.411 1.5087-9.6619 1.9454-13.6727 1.747-4.1208-.2085-8.0716-1.1019-12.7625-2.2433-4.541-1.1018-9.3419-1.2805-13.9228-.8338-3.2606.3176-6.4413.9628-9.3719 1.8164-3.4606 1.0025-4.5609-6.8985-1.1302-6.6801 1.8104.119 3.7008.2084 5.6311.258 4.451.129 9.1319.0795 13.5727-.2382 4.721-.3375 8.7018-.6055 12.8926-.675 4.2108-.0595 8.6917.0795 14.4028.546 5.5912.4566 11.2623.4764 16.2533.3176.6501-.0198 1.3702.3871 1.7703 1.0025.5901.9231.3801 2.283-.42 3.0175zm-3.7008 8.9631c-3.2706.4467-6.7213 1.618-10.272 3.881-4.3709 2.7893-7.9316 3.5933-11.4223 3.1863-4.0408-.4765-7.9616-2.5113-12.6125-5.1119-4.671-2.6105-9.732-2.9976-14.633-1.8958-2.2303.4963-4.4408 1.2407-6.5212 2.283-3.0106 1.5186-5.9512-5.1814-2.4705-5.8663a42.6298 42.6298 0 0 1 4.3609-.6352c4.2108-.407 8.6317-.2482 12.8625.7841 4.791 1.1713 8.8518 2.0845 13.2427 2.3028 4.5008.2283 9.2818-.2779 15.413-1.9752 4.0108-1.1117 8.1516-1.3599 12.0424-1.1713.44.0199 1.1802.3077 1.5803.8933.9402 1.3797.15 3.087-1.5803 3.3252zm-5.091 8.5959c.7601-.7544.9402-1.737.32-2.6403-.52-.7544-1.4502-1.0224-2.6705-.4566-.51.2382-1.0202.5161-1.5203.8437-7.1714 4.5758-12.6425 5.9456-17.6735 5.36-4.4809-.526-8.5617-2.6403-13.3826-5.3402-4.1008-2.2928-8.2717-2.68-12.1524-1.8065-1.6704.3177-2.4205 2.293-1.2303 3.5337C15.2283 63.0296 23.8801 67 33.482 67s17.7935-3.762 23.9047-9.8465z"/></svg>